<svg viewBox="0 0 100 120" xmlns="http://www.w3.org/2000/svg">
    <path d="M30 40 L10 30" stroke="black" stroke-width="4" />
    <path d="M30 60 L5 60" stroke="black" stroke-width="4" />
    <path d="M35 80 L15 100" stroke="black" stroke-width="4" />
    <path d="M70 40 L90 30" stroke="black" stroke-width="4" />
    <path d="M70 60 L95 60" stroke="black" stroke-width="4" />
    <path d="M65 80 L85 100" stroke="black" stroke-width="4" />
    <circle cx="50" cy="30" r="15" fill="black" />
    <path d="M45 20 C40 10 35 15 30 10" fill="none" stroke="black" stroke-width="3" />
    <path d="M55 20 C60 10 65 15 70 10" fill="none" stroke="black" stroke-width="3" />
    <path d="M50 40 C30 40 25 60 25 80 C25 100 40 110 50 110 Z" fill="#FF5F1F" />
    <path d="M50 40 C70 40 75 60 75 80 C75 100 60 110 50 110 Z" fill="#FF5F1F" />
</svg>
